<mxfile host="app.diagrams.net" agent="Mozilla/5.0 (Windows NT 10.0; Win64; x64) AppleWebKit/537.36 (KHTML, like Gecko) Chrome/132.0.0.0 Safari/537.36" version="26.0.6">
  <diagram name="Страница — 1" id="LDmB1OvMdF-QmFk6Qm8B">
    <mxGraphModel dx="913" dy="454" grid="1" gridSize="10" guides="1" tooltips="1" connect="1" arrows="1" fold="1" page="1" pageScale="1" pageWidth="2336" pageHeight="1654" math="0" shadow="0">
      <root>
        <mxCell id="0" />
        <mxCell id="1" parent="0" />
        <mxCell id="Ar7VTaamPSCHCqMAzxKv-7" style="rounded=0;orthogonalLoop=1;jettySize=auto;html=1;entryX=0;entryY=0.5;entryDx=0;entryDy=0;exitX=1;exitY=0.3333333333333333;exitDx=0;exitDy=0;exitPerimeter=0;" edge="1" parent="1" source="Ar7VTaamPSCHCqMAzxKv-1" target="Ar7VTaamPSCHCqMAzxKv-2">
          <mxGeometry relative="1" as="geometry">
            <mxPoint x="580" y="570" as="sourcePoint" />
          </mxGeometry>
        </mxCell>
        <mxCell id="Ar7VTaamPSCHCqMAzxKv-8" style="rounded=0;orthogonalLoop=1;jettySize=auto;html=1;exitX=1;exitY=0.3333333333333333;exitDx=0;exitDy=0;exitPerimeter=0;entryX=0;entryY=0.5;entryDx=0;entryDy=0;" edge="1" parent="1" source="Ar7VTaamPSCHCqMAzxKv-1" target="Ar7VTaamPSCHCqMAzxKv-4">
          <mxGeometry relative="1" as="geometry" />
        </mxCell>
        <mxCell id="Ar7VTaamPSCHCqMAzxKv-10" style="rounded=0;orthogonalLoop=1;jettySize=auto;html=1;exitX=1;exitY=0.3333333333333333;exitDx=0;exitDy=0;exitPerimeter=0;entryX=0;entryY=0.5;entryDx=0;entryDy=0;" edge="1" parent="1" source="Ar7VTaamPSCHCqMAzxKv-1" target="Ar7VTaamPSCHCqMAzxKv-3">
          <mxGeometry relative="1" as="geometry" />
        </mxCell>
        <mxCell id="Ar7VTaamPSCHCqMAzxKv-11" style="rounded=0;orthogonalLoop=1;jettySize=auto;html=1;exitX=1;exitY=0.3333333333333333;exitDx=0;exitDy=0;exitPerimeter=0;entryX=0;entryY=0.5;entryDx=0;entryDy=0;" edge="1" parent="1" source="Ar7VTaamPSCHCqMAzxKv-1" target="Ar7VTaamPSCHCqMAzxKv-5">
          <mxGeometry relative="1" as="geometry" />
        </mxCell>
        <mxCell id="Ar7VTaamPSCHCqMAzxKv-16" style="rounded=0;orthogonalLoop=1;jettySize=auto;html=1;exitX=0;exitY=0.3333333333333333;exitDx=0;exitDy=0;exitPerimeter=0;entryX=1;entryY=0.5;entryDx=0;entryDy=0;" edge="1" parent="1" source="Ar7VTaamPSCHCqMAzxKv-1" target="Ar7VTaamPSCHCqMAzxKv-12">
          <mxGeometry relative="1" as="geometry" />
        </mxCell>
        <mxCell id="Ar7VTaamPSCHCqMAzxKv-17" style="rounded=0;orthogonalLoop=1;jettySize=auto;html=1;exitX=0;exitY=0.3333333333333333;exitDx=0;exitDy=0;exitPerimeter=0;entryX=1;entryY=0.5;entryDx=0;entryDy=0;" edge="1" parent="1" source="Ar7VTaamPSCHCqMAzxKv-1" target="Ar7VTaamPSCHCqMAzxKv-14">
          <mxGeometry relative="1" as="geometry" />
        </mxCell>
        <mxCell id="Ar7VTaamPSCHCqMAzxKv-18" style="rounded=0;orthogonalLoop=1;jettySize=auto;html=1;exitX=0;exitY=0.3333333333333333;exitDx=0;exitDy=0;exitPerimeter=0;entryX=1;entryY=0.5;entryDx=0;entryDy=0;" edge="1" parent="1" source="Ar7VTaamPSCHCqMAzxKv-1" target="Ar7VTaamPSCHCqMAzxKv-13">
          <mxGeometry relative="1" as="geometry" />
        </mxCell>
        <mxCell id="Ar7VTaamPSCHCqMAzxKv-19" style="rounded=0;orthogonalLoop=1;jettySize=auto;html=1;exitX=0;exitY=0.3333333333333333;exitDx=0;exitDy=0;exitPerimeter=0;entryX=1;entryY=0.5;entryDx=0;entryDy=0;" edge="1" parent="1" source="Ar7VTaamPSCHCqMAzxKv-1" target="Ar7VTaamPSCHCqMAzxKv-15">
          <mxGeometry relative="1" as="geometry" />
        </mxCell>
        <mxCell id="Ar7VTaamPSCHCqMAzxKv-1" value="Пользователь" style="shape=umlActor;verticalLabelPosition=bottom;verticalAlign=top;html=1;outlineConnect=0;" vertex="1" parent="1">
          <mxGeometry x="430" y="570" width="30" height="60" as="geometry" />
        </mxCell>
        <mxCell id="Ar7VTaamPSCHCqMAzxKv-2" value="Создать факт списания&lt;span style=&quot;background-color: transparent; color: light-dark(rgb(0, 0, 0), rgb(255, 255, 255));&quot;&gt;&amp;nbsp;книги&lt;/span&gt;" style="ellipse;whiteSpace=wrap;html=1;" vertex="1" parent="1">
          <mxGeometry x="620" y="380" width="120" height="80" as="geometry" />
        </mxCell>
        <mxCell id="Ar7VTaamPSCHCqMAzxKv-3" value="Отредактировать&lt;br&gt;&lt;div&gt;&lt;span style=&quot;color: rgba(0, 0, 0, 0); font-family: monospace; font-size: 0px; text-align: start; text-wrap-mode: nowrap; background-color: transparent;&quot;&gt;%3CmxGraphModel%3E%3Croot%3E%3CmxCell%20id%3D%220%22%2F%3E%3CmxCell%20id%3D%221%22%20parent%3D%220%22%2F%3E%3CmxCell%20id%3D%222%22%20value%3D%22%D0%A1%D0%BE%D0%B7%D0%B4%D0%B0%D1%82%D1%8C%20%D1%84%D0%B0%D0%BA%D1%82%20%D0%BF%D1%80%D0%B8%D1%85%D0%BE%D0%B4%D0%B0%20%D0%BA%D0%BD%D0%B8%D0%B3%D0%B8%22%20style%3D%22ellipse%3BwhiteSpace%3Dwrap%3Bhtml%3D1%3B%22%20vertex%3D%221%22%20parent%3D%221%22%3E%3CmxGeometry%20x%3D%22620%22%20y%3D%22410%22%20width%3D%22120%22%20height%3D%2280%22%20as%3D%22geometry%22%2F%3E%3C%2FmxCell%3E%3C%2Froot%3E%3C%2FmxGraphModel%3E&lt;/span&gt;&amp;nbsp;факт списания книги&lt;/div&gt;" style="ellipse;whiteSpace=wrap;html=1;" vertex="1" parent="1">
          <mxGeometry x="620" y="560" width="120" height="80" as="geometry" />
        </mxCell>
        <mxCell id="Ar7VTaamPSCHCqMAzxKv-4" value="Получить&lt;span style=&quot;background-color: transparent; color: light-dark(rgb(0, 0, 0), rgb(255, 255, 255));&quot;&gt;&amp;nbsp;факт списания книги&lt;/span&gt;" style="ellipse;whiteSpace=wrap;html=1;" vertex="1" parent="1">
          <mxGeometry x="620" y="470" width="120" height="80" as="geometry" />
        </mxCell>
        <mxCell id="Ar7VTaamPSCHCqMAzxKv-5" value="Удалить факт&lt;span style=&quot;background-color: transparent; color: light-dark(rgb(0, 0, 0), rgb(255, 255, 255));&quot;&gt;&amp;nbsp;списания книги&lt;/span&gt;" style="ellipse;whiteSpace=wrap;html=1;" vertex="1" parent="1">
          <mxGeometry x="620" y="650" width="120" height="80" as="geometry" />
        </mxCell>
        <mxCell id="Ar7VTaamPSCHCqMAzxKv-12" value="Создать факт прихода книги" style="ellipse;whiteSpace=wrap;html=1;" vertex="1" parent="1">
          <mxGeometry x="150" y="380" width="120" height="80" as="geometry" />
        </mxCell>
        <mxCell id="Ar7VTaamPSCHCqMAzxKv-13" value="Отредактировать&lt;br&gt;&lt;div&gt;&lt;span style=&quot;color: rgba(0, 0, 0, 0); font-family: monospace; font-size: 0px; text-align: start; text-wrap-mode: nowrap; background-color: transparent;&quot;&gt;%3CmxGraphModel%3E%3Croot%3E%3CmxCell%20id%3D%220%22%2F%3E%3CmxCell%20id%3D%221%22%20parent%3D%220%22%2F%3E%3CmxCell%20id%3D%222%22%20value%3D%22%D0%A1%D0%BE%D0%B7%D0%B4%D0%B0%D1%82%D1%8C%20%D1%84%D0%B0%D0%BA%D1%82%20%D0%BF%D1%80%D0%B8%D1%85%D0%BE%D0%B4%D0%B0%20%D0%BA%D0%BD%D0%B8%D0%B3%D0%B8%22%20style%3D%22ellipse%3BwhiteSpace%3Dwrap%3Bhtml%3D1%3B%22%20vertex%3D%221%22%20parent%3D%221%22%3E%3CmxGeometry%20x%3D%22620%22%20y%3D%22410%22%20width%3D%22120%22%20height%3D%2280%22%20as%3D%22geometry%22%2F%3E%3C%2FmxCell%3E%3C%2Froot%3E%3C%2FmxGraphModel%3E&lt;/span&gt;&amp;nbsp;факт прихода книги&lt;/div&gt;" style="ellipse;whiteSpace=wrap;html=1;" vertex="1" parent="1">
          <mxGeometry x="150" y="560" width="120" height="80" as="geometry" />
        </mxCell>
        <mxCell id="Ar7VTaamPSCHCqMAzxKv-14" value="Получить&lt;span style=&quot;background-color: transparent; color: light-dark(rgb(0, 0, 0), rgb(255, 255, 255));&quot;&gt;&amp;nbsp;факт прихода книги&lt;/span&gt;" style="ellipse;whiteSpace=wrap;html=1;" vertex="1" parent="1">
          <mxGeometry x="150" y="470" width="120" height="80" as="geometry" />
        </mxCell>
        <mxCell id="Ar7VTaamPSCHCqMAzxKv-15" value="Удалить факт&lt;span style=&quot;background-color: transparent; color: light-dark(rgb(0, 0, 0), rgb(255, 255, 255));&quot;&gt;&amp;nbsp;прихода книги&lt;/span&gt;" style="ellipse;whiteSpace=wrap;html=1;" vertex="1" parent="1">
          <mxGeometry x="150" y="650" width="120" height="80" as="geometry" />
        </mxCell>
        <mxCell id="Ar7VTaamPSCHCqMAzxKv-20" value="" style="whiteSpace=wrap;html=1;dashed=1;" vertex="1" parent="1">
          <mxGeometry x="1030" y="380" width="260" height="330" as="geometry" />
        </mxCell>
        <mxCell id="Ar7VTaamPSCHCqMAzxKv-21" value="Внешние сервисы" style="text;html=1;align=center;verticalAlign=middle;whiteSpace=wrap;rounded=0;" vertex="1" parent="1">
          <mxGeometry x="1075" y="390" width="170" height="30" as="geometry" />
        </mxCell>
        <mxCell id="Ar7VTaamPSCHCqMAzxKv-27" style="rounded=0;orthogonalLoop=1;jettySize=auto;html=1;entryX=1;entryY=0.5;entryDx=0;entryDy=0;exitX=0;exitY=0.3333333333333333;exitDx=0;exitDy=0;exitPerimeter=0;" edge="1" parent="1" source="Ar7VTaamPSCHCqMAzxKv-24" target="Ar7VTaamPSCHCqMAzxKv-25">
          <mxGeometry relative="1" as="geometry" />
        </mxCell>
        <mxCell id="Ar7VTaamPSCHCqMAzxKv-28" style="rounded=0;orthogonalLoop=1;jettySize=auto;html=1;exitX=0;exitY=0.3333333333333333;exitDx=0;exitDy=0;exitPerimeter=0;entryX=1;entryY=0.5;entryDx=0;entryDy=0;" edge="1" parent="1" source="Ar7VTaamPSCHCqMAzxKv-24" target="Ar7VTaamPSCHCqMAzxKv-26">
          <mxGeometry relative="1" as="geometry" />
        </mxCell>
        <mxCell id="Ar7VTaamPSCHCqMAzxKv-24" value="Сервис Каталог" style="shape=umlActor;verticalLabelPosition=bottom;verticalAlign=top;html=1;outlineConnect=0;" vertex="1" parent="1">
          <mxGeometry x="1145" y="440" width="30" height="60" as="geometry" />
        </mxCell>
        <mxCell id="Ar7VTaamPSCHCqMAzxKv-25" value="Добавить новую Книгу" style="ellipse;whiteSpace=wrap;html=1;" vertex="1" parent="1">
          <mxGeometry x="845" y="400" width="120" height="60" as="geometry" />
        </mxCell>
        <mxCell id="Ar7VTaamPSCHCqMAzxKv-26" value="Удалить существующую&lt;div&gt;&amp;nbsp;Книгу&lt;/div&gt;" style="ellipse;whiteSpace=wrap;html=1;" vertex="1" parent="1">
          <mxGeometry x="845" y="470" width="120" height="60" as="geometry" />
        </mxCell>
        <mxCell id="Ar7VTaamPSCHCqMAzxKv-34" style="rounded=0;orthogonalLoop=1;jettySize=auto;html=1;exitX=0;exitY=0.3333333333333333;exitDx=0;exitDy=0;exitPerimeter=0;" edge="1" parent="1" source="Ar7VTaamPSCHCqMAzxKv-30" target="Ar7VTaamPSCHCqMAzxKv-31">
          <mxGeometry relative="1" as="geometry" />
        </mxCell>
        <mxCell id="Ar7VTaamPSCHCqMAzxKv-35" style="rounded=0;orthogonalLoop=1;jettySize=auto;html=1;exitX=0;exitY=0.3333333333333333;exitDx=0;exitDy=0;exitPerimeter=0;entryX=1;entryY=0.5;entryDx=0;entryDy=0;" edge="1" parent="1" source="Ar7VTaamPSCHCqMAzxKv-30" target="Ar7VTaamPSCHCqMAzxKv-32">
          <mxGeometry relative="1" as="geometry" />
        </mxCell>
        <mxCell id="Ar7VTaamPSCHCqMAzxKv-30" value="Сервис Аутентификации и Авторизации" style="shape=umlActor;verticalLabelPosition=bottom;verticalAlign=top;html=1;outlineConnect=0;" vertex="1" parent="1">
          <mxGeometry x="1145" y="570" width="30" height="60" as="geometry" />
        </mxCell>
        <mxCell id="Ar7VTaamPSCHCqMAzxKv-31" value="Добавить нового Пользователя" style="ellipse;whiteSpace=wrap;html=1;" vertex="1" parent="1">
          <mxGeometry x="845" y="570" width="120" height="60" as="geometry" />
        </mxCell>
        <mxCell id="Ar7VTaamPSCHCqMAzxKv-32" value="Удалить существующего Пользователя" style="ellipse;whiteSpace=wrap;html=1;" vertex="1" parent="1">
          <mxGeometry x="845" y="640" width="120" height="60" as="geometry" />
        </mxCell>
        <mxCell id="Ar7VTaamPSCHCqMAzxKv-36" style="edgeStyle=orthogonalEdgeStyle;rounded=0;orthogonalLoop=1;jettySize=auto;html=1;exitX=0.5;exitY=1;exitDx=0;exitDy=0;" edge="1" parent="1" source="Ar7VTaamPSCHCqMAzxKv-20" target="Ar7VTaamPSCHCqMAzxKv-20">
          <mxGeometry relative="1" as="geometry" />
        </mxCell>
      </root>
    </mxGraphModel>
  </diagram>
</mxfile>
